<?xml version="1.0" encoding="UTF-8" ?>
<!DOCTYPE svg PUBLIC "-//W3C//DTD SVG 1.1//EN" "http://www.w3.org/Graphics/SVG/1.1/DTD/svg11.dtd">
<svg width="534pt" height="224pt" viewBox="0 0 534 224" version="1.1" xmlns="http://www.w3.org/2000/svg">
<g id="#ffffffff">
</g>
<g id="#020202ff">
<path fill="#020202" opacity="1.00" d=" M 62.26 37.37 C 65.58 29.22 69.84 21.45 73.00 13.24 C 78.42 25.35 83.86 37.50 89.48 49.54 C 90.39 51.31 89.44 54.30 87.33 52.06 C 84.70 48.27 83.31 43.78 81.15 39.72 C 75.76 38.93 70.21 39.52 64.77 39.48 C 63.14 44.02 60.80 48.26 58.76 52.63 C 58.09 52.62 56.73 52.59 56.06 52.58 C 56.64 47.05 60.31 42.48 62.26 37.37 M 72.38 23.40 C 69.93 27.56 68.29 32.13 66.27 36.51 C 70.75 36.49 75.23 36.49 79.71 36.51 C 77.66 32.15 76.20 27.49 73.63 23.38 C 73.32 23.38 72.69 23.39 72.38 23.40 Z" />
<path fill="#020202" opacity="1.00" d=" M 224.64 13.75 C 225.56 13.66 226.48 13.57 227.41 13.47 C 227.79 15.96 228.36 18.45 228.28 21.00 C 228.24 30.25 228.28 39.50 228.25 48.76 C 232.97 48.77 237.75 48.43 242.39 49.52 C 242.37 50.51 242.36 51.51 242.35 52.50 C 236.42 52.52 230.48 52.52 224.54 52.47 C 224.59 39.56 224.39 26.65 224.64 13.75 Z" />
<path fill="#020202" opacity="1.00" d=" M 16.41 14.32 C 22.41 14.57 28.43 14.35 34.44 14.48 C 34.45 15.02 34.46 16.11 34.47 16.65 C 29.63 17.98 24.56 17.03 19.62 17.38 C 19.67 21.45 19.67 25.52 19.63 29.59 C 24.12 29.63 28.61 29.70 33.10 29.51 C 33.51 30.20 34.33 31.58 34.74 32.27 C 29.99 34.20 24.75 32.94 19.78 33.30 C 19.48 39.70 19.79 46.11 19.58 52.52 C 18.53 52.58 17.48 52.65 16.42 52.72 C 15.18 45.21 15.96 37.58 15.75 30.00 C 15.83 24.77 15.38 19.49 16.41 14.32 Z" />
<path fill="#020202" opacity="1.00" d=" M 126.47 13.78 C 133.59 12.02 141.71 13.71 147.02 18.93 C 148.39 19.88 147.87 22.68 146.09 22.78 C 143.32 21.40 141.37 18.78 138.59 17.44 C 134.56 17.12 130.47 17.09 126.44 17.45 C 121.44 19.36 117.47 23.85 116.34 29.08 C 116.18 32.23 116.07 35.41 116.49 38.54 C 117.96 42.67 121.36 45.70 124.71 48.33 C 128.90 49.99 133.67 49.96 138.03 49.03 C 141.71 48.18 143.97 43.67 148.08 44.74 C 145.67 51.02 138.18 53.42 131.99 53.31 C 127.01 53.74 122.55 51.02 118.58 48.37 C 114.19 43.84 111.84 37.24 112.36 30.95 C 113.13 23.06 118.96 16.17 126.47 13.78 Z" />
<path fill="#020202" opacity="1.00" d=" M 174.17 14.33 C 174.80 14.35 176.07 14.40 176.71 14.43 C 178.15 21.50 177.04 28.84 177.37 36.02 C 177.59 40.21 176.39 45.80 180.57 48.45 C 183.67 49.82 187.48 50.23 190.54 48.50 C 192.92 47.00 194.32 44.24 194.35 41.44 C 194.63 32.89 194.37 24.33 194.45 15.77 L 194.94 14.78 C 195.52 14.62 196.68 14.32 197.26 14.17 C 199.19 19.90 197.87 26.07 198.25 32.00 C 198.48 38.75 198.61 47.06 192.47 51.43 C 185.03 56.94 173.08 50.26 173.70 41.06 C 173.92 32.16 173.09 23.18 174.17 14.33 Z" />
<path fill="#020202" opacity="1.00" d=" M 262.34 14.34 C 269.02 14.57 275.70 14.32 282.38 14.50 C 282.39 15.02 282.41 16.07 282.42 16.59 C 279.80 17.53 277.00 17.36 274.27 17.31 C 274.24 27.22 274.25 37.12 274.27 47.02 C 274.33 49.05 273.87 51.05 273.23 52.96 C 271.20 52.94 270.26 51.99 270.42 50.09 C 270.43 39.20 270.38 28.30 270.46 17.40 C 267.73 17.30 265.00 17.37 262.28 17.22 C 262.29 16.50 262.32 15.06 262.34 14.34 Z" />
<path fill="#020202" opacity="1.00" d=" M 318.90 14.68 C 319.86 15.50 321.20 16.10 321.64 17.39 C 325.63 26.38 329.57 35.39 333.80 44.27 C 334.84 46.95 336.84 49.49 336.51 52.52 C 334.63 53.53 333.46 51.54 332.76 50.18 C 331.16 46.52 329.54 42.87 327.67 39.33 C 322.38 39.65 316.98 38.89 311.75 39.71 C 309.19 43.79 308.08 48.66 305.13 52.52 C 304.53 52.59 303.33 52.71 302.73 52.77 C 303.65 47.38 306.87 42.85 308.75 37.79 C 311.92 29.99 316.22 22.67 318.90 14.68 M 318.68 23.30 C 317.67 27.93 314.03 31.68 314.10 36.56 C 318.05 36.45 322.00 36.47 325.95 36.56 C 325.47 31.87 322.16 28.13 321.20 23.55 C 320.36 23.47 319.51 23.39 318.68 23.30 Z" />
<path fill="#020202" opacity="1.00" d=" M 361.40 14.43 C 369.47 15.04 378.93 12.48 385.61 18.34 C 394.47 26.49 394.13 42.95 383.93 49.90 C 376.95 53.17 368.97 52.45 361.44 52.54 C 361.29 39.84 361.36 27.13 361.40 14.43 M 364.31 17.31 C 364.19 27.79 364.28 38.27 364.25 48.75 C 368.75 48.68 373.26 48.93 377.75 48.56 C 382.63 47.27 386.67 43.36 388.11 38.52 C 388.60 33.23 389.18 27.04 385.01 22.98 C 379.99 16.88 371.47 17.14 364.31 17.31 Z" />
<path fill="#020202" opacity="1.00" d=" M 445.57 17.96 C 445.56 16.66 445.86 15.43 446.47 14.27 C 453.88 15.20 462.18 12.75 468.79 17.17 C 472.61 19.56 474.82 23.82 475.96 28.07 C 476.92 34.26 476.89 41.35 472.23 46.16 C 466.29 54.19 455.17 52.02 446.50 52.69 C 445.80 51.23 445.44 49.64 445.56 48.03 C 445.61 38.00 445.57 27.98 445.57 17.96 M 448.41 17.40 C 448.39 27.82 448.48 38.24 448.36 48.67 C 453.14 48.68 457.95 48.99 462.72 48.51 C 465.12 47.48 467.71 46.50 469.50 44.49 C 471.62 41.69 472.69 38.23 473.42 34.84 C 473.60 27.87 469.45 20.56 462.53 18.52 C 458.08 16.61 453.10 17.55 448.41 17.40 Z" />
<path fill="#020202" opacity="1.00" d=" M 502.80 14.41 C 509.13 14.42 515.46 14.49 521.79 14.40 C 521.70 15.13 521.53 16.58 521.44 17.31 C 515.77 17.42 510.11 17.21 504.45 17.42 C 504.45 21.49 504.28 25.58 504.58 29.65 C 510.25 29.52 515.92 29.74 521.60 29.51 C 521.62 30.69 521.65 31.87 521.69 33.05 C 515.94 33.58 510.16 33.12 504.41 33.36 C 504.43 38.45 504.42 43.53 504.42 48.62 C 510.20 48.81 516.00 48.57 521.78 48.80 C 521.69 50.09 521.60 51.38 521.52 52.66 C 515.28 52.33 509.04 52.57 502.81 52.55 C 502.49 52.21 501.85 51.51 501.53 51.17 C 501.51 39.40 501.58 27.63 501.49 15.86 C 501.82 15.49 502.47 14.77 502.80 14.41 Z" />
<path fill="#020202" opacity="1.00" d=" M 8.34 70.63 C 180.78 70.72 353.22 70.70 525.66 70.64 C 525.68 72.19 525.67 73.74 525.64 75.30 C 353.22 75.23 180.79 75.23 8.36 75.30 C 8.32 73.74 8.31 72.18 8.34 70.63 Z" />
<path fill="#020202" opacity="1.00" d=" M 8.32 92.70 C 30.45 92.83 52.59 92.66 74.72 92.78 C 77.19 92.69 77.26 96.73 75.17 97.46 C 52.94 97.56 30.71 97.29 8.49 97.59 C 8.35 95.96 8.30 94.33 8.32 92.70 Z" />
<path fill="#020202" opacity="1.00" d=" M 434.05 92.79 C 464.57 92.66 495.10 92.83 525.62 92.70 C 525.67 94.31 525.70 95.91 525.71 97.51 C 495.94 97.44 466.18 97.43 436.41 97.52 C 435.57 95.96 434.73 94.41 434.05 92.79 Z" />
<path fill="#020202" opacity="1.00" d=" M 86.31 93.24 C 88.65 93.51 91.43 92.62 93.46 93.96 C 93.45 106.67 93.39 119.38 93.49 132.08 C 91.39 133.34 88.64 132.52 86.27 132.79 C 86.47 119.61 86.40 106.42 86.31 93.24 Z" />
<path fill="#020202" opacity="1.00" d=" M 98.87 93.23 C 101.11 93.25 103.36 93.32 105.60 93.52 C 105.48 96.42 105.40 99.33 105.67 102.22 C 111.92 107.29 117.18 113.46 123.01 119.00 C 126.40 122.05 129.13 126.05 133.46 127.87 C 133.45 116.37 133.52 104.86 133.41 93.35 C 135.52 93.28 137.62 93.24 139.73 93.24 C 139.76 106.40 139.76 119.57 139.73 132.73 C 137.41 132.74 135.09 132.76 132.77 132.81 C 126.68 126.72 120.73 120.49 114.28 114.79 C 111.28 112.25 109.03 108.84 105.55 106.90 C 105.52 115.43 105.32 123.98 105.69 132.52 C 103.34 132.54 100.61 133.38 98.51 132.10 C 98.81 119.15 98.13 106.15 98.87 93.23 Z" />
<path fill="#020202" opacity="1.00" d=" M 191.70 93.51 C 197.06 92.32 202.56 92.85 208.00 92.75 C 216.59 93.01 225.26 92.10 233.78 93.47 C 233.70 94.74 233.64 96.02 233.58 97.29 C 222.14 97.22 210.71 97.24 199.27 97.29 C 199.26 99.45 199.27 101.61 199.28 103.77 C 206.66 103.78 214.05 103.84 221.43 103.75 C 221.52 105.31 221.58 106.87 221.61 108.44 C 214.34 108.35 207.07 108.36 199.81 108.40 C 199.48 108.76 198.82 109.47 198.50 109.83 C 198.44 116.03 198.68 122.24 198.39 128.44 C 210.17 129.47 222.08 127.87 233.82 129.32 C 233.73 130.64 233.64 131.96 233.56 133.29 C 219.63 133.19 205.71 133.33 191.78 133.22 C 191.66 119.98 191.83 106.75 191.70 93.51 Z" />
<path fill="#020202" opacity="1.00" d=" M 239.70 93.36 C 241.94 93.27 244.19 93.26 246.43 93.32 C 246.39 95.96 246.40 98.61 246.29 101.25 C 255.26 110.08 264.44 118.72 273.64 127.31 C 274.21 115.93 272.99 104.46 274.32 93.15 C 276.43 92.64 278.54 93.09 280.61 93.54 C 280.48 106.50 280.40 119.47 280.65 132.43 C 278.20 133.30 275.27 133.76 273.19 131.79 C 267.90 127.10 263.09 121.88 257.70 117.30 C 253.84 114.04 250.66 110.01 246.46 107.15 C 246.24 115.84 246.52 124.53 246.31 133.22 C 244.13 133.23 241.96 133.24 239.79 133.23 C 239.66 119.94 239.83 106.65 239.70 93.36 Z" />
<path fill="#020202" opacity="1.00" d=" M 345.69 93.51 C 351.05 92.32 356.56 92.85 362.00 92.75 C 370.53 92.99 379.13 92.12 387.60 93.48 C 387.38 97.51 387.66 101.54 387.43 105.56 C 384.93 108.87 380.17 109.43 377.28 112.32 C 376.94 113.51 377.29 114.75 377.84 115.82 C 380.64 121.50 384.04 126.87 387.04 132.44 C 385.56 132.46 383.94 133.18 382.54 132.50 C 379.29 126.64 375.78 120.94 372.50 115.10 C 365.58 118.98 358.93 123.38 352.31 127.77 C 352.38 129.41 352.43 131.05 352.49 132.69 C 350.22 132.74 347.96 132.73 345.70 132.63 C 345.77 119.59 345.78 106.55 345.69 93.51 M 352.36 97.33 C 352.55 105.46 352.26 113.60 352.50 121.73 C 361.98 116.99 371.00 111.36 380.28 106.22 C 380.27 103.27 380.24 100.33 380.33 97.38 C 371.01 97.13 361.68 97.24 352.36 97.33 Z" />
<path fill="#020202" opacity="1.00" d=" M 391.76 93.52 C 394.34 93.30 396.93 93.26 399.53 93.35 C 399.40 106.45 399.37 119.56 399.55 132.67 C 396.94 132.74 394.34 132.71 391.75 132.51 C 391.88 119.52 391.87 106.52 391.76 93.52 Z" />
<path fill="#020202" opacity="1.00" d=" M 404.41 93.64 C 411.39 92.27 418.68 92.42 425.71 93.34 C 430.84 103.57 435.82 113.88 440.98 124.11 C 442.42 126.92 443.95 129.70 445.00 132.69 C 444.33 132.68 442.99 132.68 442.32 132.68 C 436.01 120.95 430.35 108.86 423.77 97.30 C 419.75 97.68 415.18 96.42 411.51 97.95 C 411.51 107.97 411.46 117.99 411.54 128.01 L 412.17 128.62 C 417.11 128.88 422.07 128.45 427.02 128.75 C 428.39 129.26 430.28 130.01 429.42 131.86 C 427.66 133.22 425.16 133.14 423.03 133.27 C 416.96 133.15 410.84 133.63 404.82 132.63 C 404.15 119.66 404.97 106.63 404.41 93.64 Z" />
<path fill="#020202" opacity="1.00" d=" M 146.27 93.27 C 159.74 93.25 173.22 93.20 186.69 93.29 C 186.70 94.15 186.72 95.88 186.73 96.74 C 175.35 96.79 163.96 96.77 152.58 96.76 C 152.49 107.58 152.45 118.41 152.60 129.23 C 161.83 129.21 171.05 129.26 180.28 129.22 C 180.35 124.77 180.35 120.31 180.26 115.85 C 176.27 113.27 171.01 111.64 168.66 107.29 C 170.92 107.48 173.53 106.69 175.53 108.12 C 179.35 110.52 183.20 112.91 186.78 115.67 C 186.53 121.34 186.67 127.02 186.70 132.70 C 173.22 132.80 159.74 132.75 146.27 132.73 C 146.24 119.58 146.24 106.42 146.27 93.27 Z" />
<path fill="#020202" opacity="1.00" d=" M 286.30 93.26 C 288.40 93.25 290.51 93.28 292.62 93.35 C 292.53 106.45 292.51 119.55 292.63 132.65 C 290.51 132.72 288.40 132.76 286.29 132.76 C 286.40 119.60 286.37 106.43 286.30 93.26 Z" />
<path fill="#020202" opacity="1.00" d=" M 298.27 93.26 C 312.08 93.23 325.90 93.25 339.72 93.26 C 339.73 94.13 339.73 95.88 339.73 96.75 C 328.01 96.75 316.29 96.75 304.56 96.76 C 304.52 99.32 304.52 101.89 304.56 104.45 C 312.30 104.70 320.05 104.36 327.79 104.65 C 327.74 105.56 327.64 107.37 327.59 108.28 C 320.07 108.50 312.54 108.36 305.02 108.36 C 303.85 115.22 304.90 122.29 304.45 129.24 C 316.22 129.25 327.98 129.25 339.74 129.25 C 339.74 130.13 339.74 131.88 339.73 132.75 C 325.91 132.74 312.09 132.77 298.27 132.73 C 298.24 119.58 298.23 106.42 298.27 93.26 Z" />
<path fill="#020202" opacity="1.00" d=" M 8.36 114.70 C 29.59 114.79 50.82 114.74 72.05 114.73 C 73.85 114.65 75.55 115.26 77.28 115.68 C 77.27 116.56 77.28 117.44 77.28 118.32 C 75.88 118.74 74.51 119.37 73.01 119.33 C 51.46 119.37 29.90 119.27 8.34 119.38 C 8.32 117.82 8.32 116.26 8.36 114.70 Z" />
<path fill="#020202" opacity="1.00" d=" M 447.45 114.80 C 473.52 114.64 499.58 114.84 525.64 114.71 C 525.67 116.26 525.68 117.82 525.66 119.37 C 500.26 119.29 474.85 119.33 449.45 119.35 C 448.36 118.05 447.56 116.53 447.45 114.80 Z" />
<path fill="#020202" opacity="1.00" d=" M 8.33 136.71 C 30.46 136.83 52.60 136.67 74.72 136.79 C 77.19 136.70 77.26 140.74 75.16 141.46 C 53.07 141.48 30.96 141.44 8.87 141.48 C 7.77 140.16 8.48 138.28 8.33 136.71 Z" />
<path fill="#020202" opacity="1.00" d=" M 457.65 137.34 C 480.34 137.15 503.04 137.31 525.73 137.25 C 525.74 138.14 525.75 139.93 525.75 140.82 C 502.95 140.78 480.15 140.91 457.35 140.75 C 457.43 139.90 457.58 138.19 457.65 137.34 Z" />
<path fill="#020202" opacity="1.00" d=" M 285.80 147.77 C 286.33 146.33 287.25 144.56 289.09 144.78 C 302.11 144.78 315.14 144.67 328.17 144.85 C 328.19 146.34 328.22 147.82 328.25 149.31 C 320.30 149.51 312.34 149.30 304.39 149.42 C 304.15 161.35 304.40 173.30 304.25 185.23 C 302.08 185.24 299.91 185.24 297.74 185.24 C 297.59 173.74 297.83 162.24 297.63 150.75 L 297.28 149.65 C 293.60 148.25 288.58 151.38 285.80 147.77 Z" />
<path fill="#020202" opacity="1.00" d=" M 86.35 145.31 C 88.60 145.30 90.85 145.29 93.11 145.29 C 94.01 158.28 92.98 171.36 93.63 184.38 C 91.22 185.00 88.74 185.46 86.28 184.83 C 86.48 171.66 86.35 158.48 86.35 145.31 Z" />
<path fill="#020202" opacity="1.00" d=" M 392.27 145.24 C 396.80 144.41 401.42 144.85 406.00 144.73 C 408.51 144.80 411.14 144.43 413.53 145.41 C 419.80 157.33 425.33 169.64 431.62 181.55 C 432.22 182.38 433.40 185.37 431.22 184.70 C 429.82 184.83 429.37 183.17 428.65 182.30 C 422.97 171.31 417.57 160.17 411.68 149.30 C 407.56 149.28 403.43 149.08 399.33 149.52 C 399.54 159.83 399.47 170.14 399.37 180.44 C 405.35 180.85 411.35 180.46 417.33 180.71 C 417.31 181.95 417.30 183.18 417.31 184.43 C 409.02 184.85 400.70 184.54 392.40 184.60 C 392.28 171.48 392.53 158.36 392.27 145.24 Z" />
<path fill="#020202" opacity="1.00" d=" M 439.50 145.69 C 441.52 144.93 443.65 144.57 445.76 145.21 C 446.91 156.96 445.86 168.85 446.33 180.65 C 453.22 180.64 460.11 180.52 467.00 180.67 C 469.14 180.79 470.36 182.85 471.24 184.56 C 463.56 185.88 455.74 184.99 448.00 185.27 C 445.24 185.06 441.92 185.93 439.64 183.97 C 439.49 171.21 439.80 158.44 439.50 145.69 Z" />
<path fill="#020202" opacity="1.00" d=" M 133.45 146.47 C 135.49 146.44 137.53 146.39 139.57 146.30 C 140.92 154.46 139.97 162.77 140.25 171.00 C 140.09 175.87 140.83 180.86 139.37 185.61 C 136.91 185.16 133.77 186.21 131.91 184.10 C 123.19 175.93 114.39 167.86 105.55 159.83 C 105.42 167.94 105.54 176.06 105.52 184.17 C 103.92 186.12 100.08 186.14 98.56 184.09 C 98.53 172.72 98.58 161.35 98.54 149.98 C 98.48 148.61 98.82 147.34 99.55 146.18 C 101.37 146.37 103.28 146.33 104.91 147.31 C 104.81 149.39 104.55 151.49 104.79 153.57 C 106.57 157.19 110.27 159.19 112.97 162.02 C 117.28 166.40 122.18 170.14 126.47 174.53 C 128.61 176.66 130.65 178.99 133.45 180.29 C 133.48 169.02 133.46 157.74 133.45 146.47 Z" />
<path fill="#020202" opacity="1.00" d=" M 146.26 145.28 C 153.46 145.54 160.73 144.88 167.88 145.59 C 170.86 148.81 174.11 151.82 176.53 155.52 C 179.79 160.63 185.33 164.12 187.28 170.09 C 187.54 174.83 187.40 179.60 187.37 184.35 C 185.62 184.82 183.79 184.75 182.00 184.77 C 170.09 184.72 158.18 184.79 146.26 184.73 C 146.23 171.58 146.24 158.43 146.26 145.28 M 152.88 149.32 C 152.12 154.51 152.68 159.78 152.52 165.00 C 152.68 170.23 152.12 175.50 152.88 180.69 C 161.86 180.64 170.85 180.83 179.82 180.62 L 180.43 180.00 C 180.47 175.67 180.55 171.34 180.37 167.02 C 177.13 160.18 170.78 155.62 166.72 149.34 C 162.11 149.31 157.49 149.34 152.88 149.32 Z" />
<path fill="#020202" opacity="1.00" d=" M 192.26 145.25 C 194.35 145.26 196.45 145.30 198.54 145.38 C 198.46 157.11 198.58 168.84 198.48 180.57 C 207.96 180.83 217.45 180.68 226.93 180.66 C 227.24 179.47 227.41 178.26 227.43 177.03 C 227.45 166.44 227.36 155.85 227.46 145.27 C 229.55 145.28 231.64 145.28 233.74 145.29 C 233.76 158.44 233.76 171.59 233.73 184.73 C 219.91 184.76 206.09 184.76 192.27 184.73 C 192.23 171.57 192.24 158.41 192.26 145.25 Z" />
<path fill="#020202" opacity="1.00" d=" M 240.26 145.28 C 253.21 145.35 266.16 145.26 279.11 145.32 C 280.76 144.97 282.76 147.44 280.68 148.45 C 279.18 148.95 277.63 149.31 276.05 149.27 C 266.16 149.31 256.26 149.17 246.37 149.34 C 246.47 151.99 246.04 154.72 246.70 157.32 C 257.79 162.47 269.35 166.66 280.47 171.79 C 280.39 175.99 280.32 180.19 280.57 184.38 C 275.84 185.83 270.86 185.08 266.00 185.25 C 257.42 184.97 248.76 185.87 240.23 184.70 C 240.23 183.57 240.23 182.43 240.23 181.30 C 251.35 180.07 262.61 181.08 273.79 180.74 C 273.67 178.45 274.04 176.06 273.27 173.86 C 262.24 168.77 251.28 163.52 240.25 158.43 C 240.26 154.05 240.23 149.67 240.26 145.28 Z" />
<path fill="#020202" opacity="1.00" d=" M 333.36 184.69 C 333.58 171.55 333.30 158.40 333.51 145.26 C 346.92 145.35 360.33 145.30 373.74 145.28 C 373.48 149.79 374.34 154.49 373.33 158.89 C 370.68 160.86 367.59 162.11 364.86 163.96 C 363.89 164.80 364.26 166.37 364.49 167.48 C 367.64 173.21 370.54 179.08 374.05 184.61 C 372.48 184.51 370.29 185.41 369.29 183.72 C 365.54 178.41 362.74 172.50 359.21 167.05 C 353.71 171.50 347.09 174.29 341.42 178.49 C 339.16 179.79 339.86 182.60 339.64 184.76 C 337.54 184.75 335.45 184.72 333.36 184.69 M 339.71 149.39 C 339.84 157.42 339.67 165.46 339.80 173.50 C 341.01 173.33 342.29 173.21 343.29 172.42 C 350.96 167.15 359.52 163.36 367.29 158.24 C 368.09 155.40 367.45 152.31 367.60 149.38 C 358.30 149.30 349.00 149.27 339.71 149.39 Z" />
<path fill="#020202" opacity="1.00" d=" M 380.33 145.26 C 382.75 145.26 385.18 145.28 387.61 145.33 C 387.40 158.42 387.50 171.51 387.55 184.59 C 385.16 184.69 382.78 184.73 380.40 184.67 C 380.45 171.54 380.57 158.40 380.33 145.26 Z" />
<path fill="#020202" opacity="1.00" d=" M 8.10 162.67 C 8.38 161.32 7.91 159.67 8.92 158.58 C 31.36 158.57 53.80 158.61 76.23 158.56 C 76.38 159.87 76.52 161.19 76.67 162.50 C 74.47 162.84 72.26 163.30 70.02 163.27 C 51.34 163.24 32.65 163.24 13.97 163.27 C 12.00 163.30 10.04 163.00 8.10 162.67 Z" />
<path fill="#020202" opacity="1.00" d=" M 457.21 162.51 C 457.46 161.23 457.25 159.78 458.03 158.65 C 480.37 158.49 502.73 158.63 525.08 158.58 C 526.06 159.67 525.62 161.31 525.91 162.65 C 523.96 162.96 522.00 163.29 520.03 163.26 C 504.02 163.24 488.01 163.26 472.00 163.25 C 467.06 163.21 462.07 163.58 457.21 162.51 Z" />
<path fill="#020202" opacity="1.00" d=" M 8.25 180.79 C 27.82 180.38 47.41 180.74 66.99 180.61 C 70.17 180.67 73.40 180.32 76.51 181.09 C 76.52 182.23 76.53 183.38 76.56 184.53 C 74.39 184.87 72.23 185.31 70.02 185.27 C 53.68 185.23 37.34 185.26 21.00 185.25 C 16.74 185.20 12.44 185.54 8.23 184.72 C 8.25 183.41 8.26 182.10 8.25 180.79 Z" />
<path fill="#020202" opacity="1.00" d=" M 476.45 181.39 C 480.17 180.13 484.15 180.73 488.00 180.62 C 500.58 180.73 513.17 180.39 525.74 180.79 C 525.74 182.09 525.75 183.39 525.78 184.70 C 518.58 185.82 511.25 185.01 504.00 185.25 C 494.80 184.98 485.52 185.94 476.40 184.47 C 476.41 183.44 476.43 182.42 476.45 181.39 Z" />
<path fill="#020202" opacity="1.00" d=" M 8.36 202.69 C 180.79 202.76 353.22 202.76 525.65 202.69 C 525.67 204.22 525.67 205.76 525.64 207.30 C 353.22 207.23 180.79 207.23 8.36 207.30 C 8.32 205.76 8.32 204.22 8.36 202.69 Z" />
</g>
</svg>
